<svg width="41" height="40" viewBox="0 0 41 40" fill="none" xmlns="http://www.w3.org/2000/svg">
<path d="M40 12C40.0194 11.8607 40.0194 11.7193 40 11.58V11.5705C40 11.4707 39.9873 11.3706 39.9487 11.2786C39.9231 11.2172 39.8934 11.1576 39.86 11.1C39.834 11.0424 39.8004 10.9886 39.76 10.94L39.6433 10.7883C39.588 10.7164 39.5232 10.6524 39.4507 10.598L39.4 10.56L39.16 10.38L21.16 0.38001C20.856 0.204473 20.5111 0.112061 20.16 0.112061C19.8089 0.112061 19.464 0.204473 19.16 0.38001L1.22742 10.3426C1.18254 10.3675 1.13965 10.3958 1.09912 10.4274L0.98 10.52L0.829882 10.6292C0.78343 10.663 0.73951 10.7008 0.70609 10.7475C0.638829 10.8416 0.570267 10.9364 0.503598 11.0308C0.487889 11.0531 0.473332 11.0762 0.46 11.1C0.40807 11.1878 0.367734 11.2819 0.34 11.38C0.319212 11.503 0.279828 11.6277 0.196926 11.7209C0.158699 11.7639 0.122935 11.809 0.0898115 11.856C0.0256745 11.9471 0 12.0584 0 12.1698V28C0.00259563 28.3564 0.100376 28.7056 0.283223 29.0115C0.466069 29.3174 0.72734 29.569 1.04 29.74L19.04 39.74C19.0888 39.7685 19.1392 39.7942 19.1908 39.8169C19.2619 39.8483 19.3397 39.86 19.4174 39.86C19.4723 39.86 19.5268 39.8671 19.5806 39.8779C19.8603 39.9344 20.1486 39.9338 20.4281 39.8761C20.4761 39.8662 20.5247 39.86 20.5736 39.86C20.657 39.86 20.7395 39.8431 20.8161 39.8102L20.98 39.74L38.98 29.74C39.2889 29.5664 39.5462 29.3137 39.7254 29.008C39.9046 28.7023 39.9994 28.3544 40 28V12ZM20 19.74L6.12 12L11.64 8.96001L25.3 16.76L20 19.74ZM20 4.30001L33.88 12L29.4 14.5L15.74 6.68001L20 4.30001ZM4 15.4L18 23.24V34.6L4 26.82V15.4ZM22 34.6V23.24L28 19.88V22.7639C28 24.2507 29.5646 25.2177 30.8944 24.5528C31.572 24.214 32 23.5215 32 22.7639V18.2287C32 17.8654 32.1971 17.5306 32.5147 17.3543L36 15.42V26.82L22 34.6Z" fill="#19C6BB"/>
</svg>
