<svg width="39" height="39" viewBox="0 0 39 39" fill="none" xmlns="http://www.w3.org/2000/svg">
<g clip-path="url(#clip0_1_927)">
<path d="M29.4241 21.576C29.2385 21.3901 29.0181 21.2427 28.7754 21.142C28.5328 21.0414 28.2727 20.9896 28.0101 20.9896C27.7474 20.9896 27.4873 21.0414 27.2447 21.142C27.002 21.2427 26.7816 21.3901 26.5961 21.576L23.4021 24.768C21.7541 24.278 19.0701 23.226 17.4221 21.576C15.6741 19.828 14.6741 17.07 14.2341 15.592L17.4221 12.404C17.608 12.2185 17.7554 11.998 17.856 11.7554C17.9567 11.5128 18.0085 11.2527 18.0085 10.99C18.0085 10.7274 17.9567 10.4673 17.856 10.2246C17.7554 9.98202 17.608 9.76161 17.4221 9.57603L9.42206 1.57603C9.0397 1.21514 8.53383 1.0141 8.00806 1.0141C7.48228 1.0141 6.97641 1.21514 6.59406 1.57603L1.17606 6.99603C0.412055 7.75603 -0.0179449 8.80403 5.50572e-05 9.87003C0.0440551 12.716 0.792055 22.604 8.59406 30.406C16.3901 38.2 26.2841 38.954 29.1321 39H29.1881C30.2441 39 31.2421 38.584 31.9981 37.828L37.4221 32.404C37.6079 32.2185 37.7554 31.998 37.856 31.7554C37.9567 31.5128 38.0085 31.2527 38.0085 30.99C38.0085 30.7274 37.9567 30.4673 37.856 30.2246C37.7554 29.982 37.6079 29.7616 37.4221 29.576L29.4241 21.576ZM29.1701 35C26.6741 34.958 18.1341 34.288 11.4221 27.576C4.68606 20.84 4.03806 12.272 4.00006 9.82803L8.00806 5.81803L13.1801 10.99L10.5941 13.576C10.1181 14.052 9.91406 14.74 10.0521 15.4C10.1001 15.63 11.2741 21.084 14.5941 24.404C17.9141 27.724 23.3681 28.898 23.5981 28.946C23.9232 29.0154 24.2605 29.0021 24.5791 28.9074C24.8978 28.8127 25.1876 28.6397 25.4221 28.404L28.0081 25.818L33.1801 30.99L29.1701 35Z" fill="#19C6BB"/>
<path d="M28.297 7.87476C27.9064 8.26534 27.2732 8.26528 26.8827 7.87464L25.4242 6.41568C24.1644 5.15541 22.0098 6.04766 22.0098 7.82965V14.99C22.0098 16.0946 22.9052 16.99 24.0098 16.99H31.1701C32.9521 16.99 33.8444 14.8354 32.5841 13.5755L31.1251 12.1171C30.7345 11.7266 30.7344 11.0933 31.125 10.7028L38.0098 3.81799C38.7907 3.03706 38.7907 1.77093 38.0098 0.989995C37.2288 0.209064 35.9627 0.209064 35.1818 0.989995L28.297 7.87476Z" fill="#19C6BB"/>
</g>
<defs>
<clipPath id="clip0_1_927">
<rect width="39" height="39" fill="white"/>
</clipPath>
</defs>
</svg>
