<svg width="40" height="36" viewBox="0 0 40 36" fill="none" xmlns="http://www.w3.org/2000/svg">
<g clip-path="url(#clip0_1_938)">
<path d="M38 16H32V2C32 1.46957 31.7893 0.960859 31.4142 0.585786C31.0391 0.210714 30.5304 0 30 0H2C1.46957 0 0.960859 0.210714 0.585786 0.585786C0.210714 0.960859 0 1.46957 0 2V30C0 33.308 2.692 36 6 36H34C37.308 36 40 33.308 40 30V18C40 17.4696 39.7893 16.9609 39.4142 16.5858C39.0391 16.2107 38.5304 16 38 16ZM6 32C5.46957 32 4.96086 31.7893 4.58579 31.4142C4.21071 31.0391 4 30.5304 4 30V4H28V30C28 30.702 28.122 31.376 28.342 32H6ZM36 30C36 30.5304 35.7893 31.0391 35.4142 31.4142C35.0391 31.7893 34.5304 32 34 32C33.4696 32 32.9609 31.7893 32.5858 31.4142C32.2107 31.0391 32 30.5304 32 30V20H36V30Z" fill="#19C6BB"/>
<path d="M8 10C8 8.89543 8.89543 8 10 8H22C23.1046 8 24 8.89543 24 10V10C24 11.1046 23.1046 12 22 12H10C8.89543 12 8 11.1046 8 10V10ZM8 18C8 16.8954 8.89543 16 10 16H22C23.1046 16 24 16.8954 24 18V18C24 19.1046 23.1046 20 22 20H10C8.89543 20 8 19.1046 8 18V18ZM18 26C18 24.8954 18.8954 24 20 24H22C23.1046 24 24 24.8954 24 26V26C24 27.1046 23.1046 28 22 28H20C18.8954 28 18 27.1046 18 26V26Z" fill="#19C6BB"/>
</g>
<defs>
<clipPath id="clip0_1_938">
<rect width="40" height="36" fill="white"/>
</clipPath>
</defs>
</svg>
