<svg width="40" height="40" viewBox="0 0 40 40" fill="none" xmlns="http://www.w3.org/2000/svg">
<path d="M20 0C8.972 0 0 8.972 0 20C0 31.028 8.972 40 20 40C31.028 40 40 31.028 40 20C40 8.972 31.028 0 20 0ZM35.862 18H22V4.138C25.5197 4.58671 28.7907 6.19147 31.2996 8.70039C33.8085 11.2093 35.4133 14.4803 35.862 18ZM4 20C4 11.856 10.122 5.128 18 4.138V20C18.0059 20.3052 18.0819 20.6049 18.222 20.876C18.252 20.936 18.266 21.002 18.304 21.062L26.708 34.508C24.6075 35.4884 22.318 35.9977 20 36C11.178 36 4 28.822 4 20ZM30.104 32.392L23.61 22H35.862C35.3491 26.0751 33.2872 29.7965 30.104 32.392Z" fill="#19C6BB"/>
</svg>
